<!DOCTYPE svg PUBLIC "-//W3C//DTD SVG 1.1//EN" "http://www.w3.org/Graphics/SVG/1.1/DTD/svg11.dtd">
<!-- Uploaded to: SVG Repo, www.svgrepo.com, Transformed by: SVG Repo Mixer Tools -->
<svg version="1.1" id="Uploaded to svgrepo.com" xmlns="http://www.w3.org/2000/svg" xmlns:xlink="http://www.w3.org/1999/xlink" width="800px" height="800px" viewBox="0 0 32.00 32.00" xml:space="preserve" fill="#737373" stroke="#737373" stroke-width="0.00032">
<g id="SVGRepo_bgCarrier" stroke-width="0"/>
<g id="SVGRepo_tracerCarrier" stroke-linecap="round" stroke-linejoin="round" stroke="#CCCCCC" stroke-width="1.152"/>
<g id="SVGRepo_iconCarrier"> <style type="text/css"> .linesandangles_een{fill:#737373;} </style> <path class="linesandangles_een" d="M16,20c2.757,0,5-2.243,5-5V9c0-2.757-2.243-5-5-5s-5,2.243-5,5v6C11,17.757,13.243,20,16,20z M13,9c0-1.654,1.346-3,3-3s3,1.346,3,3v6c0,1.654-1.346,3-3,3s-3-1.346-3-3V9z M24,12v3c0,4.072-3.06,7.436-7,7.931V24 c0,1.105,0.895,2,2,2h2v2H11v-2h2c1.105,0,2-0.895,2-2v-1.069C11.06,22.436,8,19.072,8,15v-3h2v3c0,3.309,2.691,6,6,6s6-2.691,6-6 v-3H24z"/> </g>
</svg>